<?xml version="1.0" encoding="UTF-8"?>
<svg xmlns="http://www.w3.org/2000/svg" xmlns:xlink="http://www.w3.org/1999/xlink" width="24pt" height="24pt" viewBox="0 0 24 24" version="1.1">
<g id="surface1">
<path style=" stroke:none;fill-rule:evenodd;fill:rgb(97.254902%,86.666667%,43.921569%);fill-opacity:1;" d="M 0 13.398438 C 0 13.121094 0.0976562 12.898438 0.296875 12.722656 C 0.464844 12.542969 0.695312 12.464844 0.96875 12.464844 L 3.257812 12.464844 C 3.523438 12.464844 3.742188 12.554688 3.917969 12.730469 C 4.085938 12.910156 4.175781 13.125 4.175781 13.390625 C 4.175781 13.667969 4.085938 13.90625 3.910156 14.09375 C 3.730469 14.28125 3.511719 14.382812 3.257812 14.382812 L 0.980469 14.382812 C 0.710938 14.382812 0.484375 14.28125 0.296875 14.085938 C 0.0976562 13.894531 0 13.664062 0 13.398438 Z M 3.257812 5.617188 C 3.257812 5.339844 3.335938 5.109375 3.507812 4.941406 C 3.703125 4.742188 3.933594 4.644531 4.199219 4.644531 C 4.484375 4.644531 4.707031 4.742188 4.875 4.941406 L 6.476562 6.554688 C 6.933594 6.988281 6.933594 7.433594 6.476562 7.890625 C 6.289062 8.078125 6.085938 8.164062 5.835938 8.164062 C 5.621094 8.164062 5.398438 8.078125 5.160156 7.890625 L 3.515625 6.285156 C 3.347656 6.113281 3.257812 5.882812 3.257812 5.617188 Z M 5.207031 18.757812 C 5.207031 18.5 5.304688 18.277344 5.503906 18.074219 C 5.679688 17.898438 5.910156 17.808594 6.179688 17.808594 L 9.367188 17.808594 C 9.472656 17.808594 9.5625 17.828125 9.640625 17.886719 L 11.96875 20.085938 L 14.335938 17.878906 C 14.40625 17.828125 14.503906 17.796875 14.621094 17.796875 L 17.886719 17.796875 C 18.15625 17.796875 18.382812 17.886719 18.570312 18.074219 C 18.757812 18.261719 18.859375 18.492188 18.859375 18.75 C 18.859375 19.015625 18.757812 19.246094 18.570312 19.433594 C 18.382812 19.621094 18.15625 19.71875 17.886719 19.71875 L 15.234375 19.71875 L 12.125 22.53125 C 12.007812 22.621094 11.898438 22.621094 11.796875 22.53125 L 8.75 19.71875 L 6.179688 19.71875 C 5.910156 19.71875 5.679688 19.621094 5.492188 19.433594 C 5.304688 19.257812 5.207031 19.027344 5.207031 18.757812 Z M 6.136719 13.398438 C 6.136719 14.375 6.324219 15.25 6.707031 15.988281 C 6.769531 16.097656 6.859375 16.148438 6.976562 16.148438 L 8.828125 16.148438 L 8.976562 16.078125 L 8.90625 15.898438 C 8.320312 15.167969 8.023438 14.324219 8.023438 13.398438 C 8.023438 12.308594 8.410156 11.375 9.191406 10.617188 C 9.976562 9.859375 10.914062 9.46875 12.015625 9.46875 C 13.101562 9.46875 14.035156 9.851562 14.816406 10.617188 C 15.589844 11.390625 15.984375 12.308594 15.984375 13.386719 C 15.984375 14.316406 15.6875 15.160156 15.101562 15.890625 L 15.03125 16.070312 L 15.183594 16.140625 L 17.042969 16.140625 C 17.171875 16.140625 17.25 16.085938 17.28125 15.980469 C 17.691406 15.207031 17.898438 14.339844 17.898438 13.386719 C 17.898438 12.605469 17.738281 11.84375 17.433594 11.117188 C 17.128906 10.398438 16.703125 9.765625 16.175781 9.238281 C 15.652344 8.714844 15.027344 8.296875 14.304688 7.984375 C 13.585938 7.664062 12.820312 7.519531 12.027344 7.519531 C 11.234375 7.519531 10.476562 7.679688 9.75 7.984375 C 9.027344 8.300781 8.40625 8.714844 7.878906 9.238281 C 7.355469 9.765625 6.9375 10.386719 6.625 11.117188 C 6.304688 11.855469 6.136719 12.613281 6.136719 13.398438 Z M 11.042969 4.679688 L 11.042969 2.371094 C 11.042969 2.105469 11.140625 1.875 11.328125 1.6875 C 11.515625 1.5 11.746094 1.402344 12.015625 1.402344 C 12.28125 1.402344 12.511719 1.5 12.699219 1.6875 C 12.886719 1.875 12.984375 2.105469 12.984375 2.371094 L 12.984375 4.667969 C 12.984375 4.9375 12.886719 5.164062 12.699219 5.351562 C 12.511719 5.539062 12.28125 5.640625 12.015625 5.640625 C 11.746094 5.640625 11.515625 5.539062 11.328125 5.351562 C 11.132812 5.160156 11.042969 4.945312 11.042969 4.679688 Z M 17.25 7.234375 C 17.25 6.957031 17.339844 6.726562 17.507812 6.570312 L 19.121094 4.960938 C 19.28125 4.761719 19.503906 4.664062 19.796875 4.664062 C 20.0625 4.664062 20.292969 4.761719 20.46875 4.949219 C 20.648438 5.136719 20.738281 5.367188 20.738281 5.632812 C 20.738281 5.910156 20.65625 6.140625 20.488281 6.308594 L 18.84375 7.914062 C 18.613281 8.101562 18.390625 8.1875 18.160156 8.1875 C 17.902344 8.1875 17.6875 8.101562 17.507812 7.914062 C 17.339844 7.726562 17.25 7.5 17.25 7.234375 Z M 19.8125 13.398438 C 19.8125 13.128906 19.902344 12.914062 20.070312 12.734375 C 20.242188 12.558594 20.46875 12.46875 20.738281 12.46875 L 23.035156 12.46875 C 23.300781 12.46875 23.53125 12.558594 23.71875 12.734375 C 23.90625 12.914062 24.003906 13.128906 24.003906 13.398438 C 24.003906 13.664062 23.90625 13.894531 23.71875 14.089844 C 23.53125 14.289062 23.300781 14.386719 23.035156 14.386719 L 20.738281 14.386719 C 20.480469 14.386719 20.265625 14.289062 20.085938 14.101562 C 19.902344 13.914062 19.8125 13.671875 19.8125 13.398438 Z M 19.8125 13.398438 "/>
</g>
</svg>
