<?xml version="1.0" encoding="UTF-8"?>
<svg xmlns="http://www.w3.org/2000/svg" xmlns:xlink="http://www.w3.org/1999/xlink" width="24pt" height="24pt" viewBox="0 0 24 24" version="1.1">
<g id="surface1">
<path style=" stroke:none;fill-rule:evenodd;fill:#FFFFFF;fill-opacity:1;" d="M 18 18 C 18 14.6875 15.3125 12 12 12 C 8.6875 12 6 14.6875 6 18 C 6 18.554688 6.449219 19 7 19 C 7.546875 19 7.996094 18.546875 7.996094 18 C 7.996094 16.894531 8.441406 15.898438 9.167969 15.171875 C 9.894531 14.445312 10.890625 14 11.996094 14 C 13.101562 14 14.09375 14.445312 14.820312 15.171875 C 15.546875 15.898438 15.992188 16.894531 15.992188 18 C 15.992188 18.554688 16.445312 19 16.992188 19 C 17.539062 19 18 18.554688 18 18 Z M 18 18 "/>
<path style=" stroke:none;fill-rule:evenodd;fill:#FFFFFF;fill-opacity:1;" d="M 13 9 L 13 2 C 13 1.449219 12.546875 1.003906 12 1.003906 C 11.453125 1.003906 11 1.453125 11 2 L 11 9 C 11 9.554688 11.453125 10 12 10 C 12.546875 10 13 9.554688 13 9 "/>
<path style=" stroke:none;fill-rule:evenodd;fill:#FFFFFF;fill-opacity:1;" d="M 3.511719 10.925781 L 4.929688 12.347656 C 5.320312 12.734375 5.953125 12.734375 6.347656 12.347656 C 6.734375 11.957031 6.734375 11.324219 6.347656 10.929688 L 4.925781 9.511719 C 4.539062 9.121094 3.90625 9.121094 3.511719 9.511719 C 3.121094 9.90625 3.121094 10.539062 3.511719 10.925781 "/>
<path style=" stroke:none;fill-rule:evenodd;fill:#FFFFFF;fill-opacity:1;" d="M 1 19 L 3 19 C 3.554688 19 4 18.546875 4 18 C 4 17.445312 3.546875 17 3 17 L 1 17 C 0.449219 17 0 17.445312 0 18 C 0 18.554688 0.449219 19 1 19 "/>
<path style=" stroke:none;fill-rule:evenodd;fill:#FFFFFF;fill-opacity:1;" d="M 21 19 L 23 19 C 23.554688 19 24 18.546875 24 18 C 24 17.445312 23.550781 17 23 17 L 21 17 C 20.445312 17 20 17.453125 20 18 C 20 18.554688 20.445312 19 21 19 "/>
<path style=" stroke:none;fill-rule:evenodd;fill:#FFFFFF;fill-opacity:1;" d="M 19.070312 12.347656 L 20.488281 10.925781 C 20.878906 10.539062 20.878906 9.90625 20.488281 9.511719 C 20.101562 9.121094 19.46875 9.121094 19.074219 9.511719 L 17.652344 10.929688 C 17.265625 11.320312 17.265625 11.953125 17.652344 12.347656 C 18.042969 12.734375 18.675781 12.734375 19.070312 12.347656 "/>
<path style=" stroke:none;fill-rule:evenodd;fill:#FFFFFF;fill-opacity:1;" d="M 23 21 L 1 21 C 0.449219 21 0 21.449219 0 22 C 0 22.550781 0.449219 22.996094 1 22.996094 L 22.996094 22.996094 C 23.550781 22.996094 23.996094 22.546875 23.996094 22 C 24 21.449219 23.550781 21 23 21 "/>
<path style=" stroke:none;fill-rule:evenodd;fill:#FFFFFF;fill-opacity:1;" d="M 15.289062 4.292969 L 12 7.585938 L 8.710938 4.292969 C 8.320312 3.90625 7.6875 3.90625 7.292969 4.292969 C 6.90625 4.683594 6.90625 5.316406 7.292969 5.710938 L 11.292969 9.707031 C 11.480469 9.894531 11.738281 10 12 10 C 12.261719 10 12.519531 9.890625 12.707031 9.707031 L 16.707031 5.710938 C 17.09375 5.320312 17.09375 4.6875 16.707031 4.292969 C 16.316406 3.898438 15.683594 3.90625 15.289062 4.292969 Z M 15.289062 4.292969 "/>
</g>
</svg>
