<?xml version="1.0" encoding="UTF-8"?>
<svg xmlns="http://www.w3.org/2000/svg" xmlns:xlink="http://www.w3.org/1999/xlink" width="24pt" height="24pt" viewBox="0 0 24 24" version="1.1">
<g id="surface1">
<path style=" stroke:none;fill-rule:evenodd;fill:#FFFFFF;fill-opacity:1;" d="M 0 14.8125 C 0 14.570312 0.0976562 14.34375 0.296875 14.136719 C 0.511719 13.949219 0.746094 13.851562 0.980469 13.851562 L 3.261719 13.851562 C 3.523438 13.851562 3.742188 13.949219 3.917969 14.136719 C 4.097656 14.324219 4.179688 14.558594 4.179688 14.8125 C 4.179688 15.097656 4.09375 15.332031 3.917969 15.515625 C 3.746094 15.699219 3.515625 15.800781 3.261719 15.800781 L 0.980469 15.800781 C 0.71875 15.800781 0.492188 15.703125 0.296875 15.507812 C 0.0976562 15.300781 0 15.066406 0 14.8125 Z M 3.261719 6.992188 C 3.261719 6.730469 3.351562 6.507812 3.515625 6.328125 C 3.742188 6.132812 3.964844 6.03125 4.210938 6.03125 C 4.460938 6.03125 4.6875 6.132812 4.875 6.320312 L 6.484375 7.9375 C 6.671875 8.152344 6.753906 8.375 6.753906 8.609375 C 6.753906 8.882812 6.664062 9.121094 6.492188 9.296875 C 6.3125 9.472656 6.097656 9.566406 5.84375 9.566406 C 5.609375 9.566406 5.375 9.46875 5.160156 9.28125 L 3.515625 7.710938 C 3.351562 7.503906 3.261719 7.261719 3.261719 6.992188 Z M 5.222656 20.21875 C 5.222656 19.941406 5.320312 19.714844 5.507812 19.550781 C 5.6875 19.382812 5.902344 19.296875 6.171875 19.296875 L 8.75 19.296875 L 11.796875 16.4375 C 11.898438 16.359375 12.003906 16.359375 12.132812 16.4375 L 15.226562 19.296875 L 17.9375 19.296875 C 18.203125 19.296875 18.425781 19.386719 18.613281 19.570312 C 18.800781 19.75 18.898438 19.972656 18.898438 20.226562 C 18.898438 20.488281 18.800781 20.714844 18.613281 20.902344 C 18.425781 21.089844 18.203125 21.1875 17.9375 21.1875 L 14.625 21.1875 C 14.527344 21.1875 14.429688 21.167969 14.339844 21.117188 L 11.976562 18.894531 L 9.636719 21.117188 C 9.558594 21.164062 9.46875 21.1875 9.367188 21.1875 L 6.171875 21.1875 C 5.910156 21.1875 5.6875 21.089844 5.5 20.902344 C 5.3125 20.710938 5.222656 20.484375 5.222656 20.21875 Z M 6.121094 14.8125 C 6.121094 15.765625 6.328125 16.625 6.730469 17.398438 C 6.75 17.515625 6.839844 17.578125 6.976562 17.578125 L 8.816406 17.578125 L 8.960938 17.5 L 8.945312 17.3125 C 8.316406 16.554688 8 15.722656 8 14.8125 C 8 13.714844 8.394531 12.773438 9.179688 12 C 9.960938 11.226562 10.902344 10.84375 12.007812 10.84375 C 13.105469 10.84375 14.039062 11.226562 14.8125 12 C 15.585938 12.773438 15.980469 13.707031 15.980469 14.8125 C 15.980469 15.730469 15.664062 16.566406 15.046875 17.3125 L 15.019531 17.5 L 15.164062 17.578125 L 17.023438 17.578125 C 17.152344 17.578125 17.230469 17.515625 17.25 17.398438 C 17.679688 16.644531 17.878906 15.78125 17.878906 14.8125 C 17.878906 14.019531 17.722656 13.257812 17.410156 12.539062 C 17.09375 11.8125 16.671875 11.199219 16.15625 10.667969 C 15.636719 10.148438 15.007812 9.726562 14.289062 9.414062 C 13.5625 9.097656 12.804688 8.953125 12.015625 8.953125 C 11.222656 8.953125 10.457031 9.109375 9.730469 9.414062 C 9.003906 9.726562 8.382812 10.140625 7.851562 10.667969 C 7.320312 11.1875 6.898438 11.8125 6.589844 12.539062 C 6.28125 13.25 6.121094 14.007812 6.121094 14.8125 Z M 11.046875 6.03125 L 11.046875 3.78125 C 11.046875 3.496094 11.136719 3.273438 11.324219 3.089844 C 11.511719 2.90625 11.746094 2.816406 12.019531 2.816406 C 12.289062 2.816406 12.519531 2.90625 12.703125 3.089844 C 12.890625 3.277344 12.976562 3.519531 12.976562 3.796875 L 12.976562 6.050781 C 12.976562 6.335938 12.886719 6.5625 12.703125 6.746094 C 12.523438 6.921875 12.289062 7.023438 12.019531 7.023438 C 11.734375 7.023438 11.507812 6.933594 11.324219 6.746094 C 11.140625 6.558594 11.046875 6.320312 11.046875 6.03125 Z M 17.269531 8.621094 C 17.269531 8.375 17.359375 8.152344 17.53125 7.945312 L 19.121094 6.328125 C 19.308594 6.140625 19.542969 6.042969 19.804688 6.042969 C 20.066406 6.042969 20.304688 6.140625 20.480469 6.328125 C 20.667969 6.515625 20.75 6.742188 20.75 7.003906 C 20.75 7.289062 20.664062 7.523438 20.5 7.71875 L 18.851562 9.300781 C 18.648438 9.488281 18.414062 9.585938 18.167969 9.585938 C 17.90625 9.585938 17.691406 9.496094 17.523438 9.3125 C 17.351562 9.132812 17.269531 8.898438 17.269531 8.621094 Z M 19.828125 14.8125 C 19.828125 14.550781 19.917969 14.324219 20.089844 14.136719 C 20.269531 13.949219 20.484375 13.851562 20.738281 13.851562 L 23.039062 13.851562 C 23.300781 13.851562 23.527344 13.949219 23.714844 14.136719 C 23.902344 14.324219 24 14.558594 24 14.8125 C 24 15.085938 23.902344 15.3125 23.714844 15.507812 C 23.527344 15.703125 23.300781 15.800781 23.039062 15.800781 L 20.738281 15.800781 C 20.476562 15.800781 20.257812 15.703125 20.082031 15.515625 C 19.917969 15.320312 19.828125 15.085938 19.828125 14.8125 Z M 19.828125 14.8125 "/>
</g>
</svg>
